<svg xmlns="http://www.w3.org/2000/svg" width="34.001" height="39.001" viewBox="0 0 34.001 39.001">
  <g id="basketball" transform="translate(-6.999 -4.999)" style="isolation: isolate">
    <path id="Path_490" data-name="Path 490" d="M37.5,20H32.2l-4.55-5.461A1.5,1.5,0,0,0,26.5,14H20c-.025,0-5.323,10.951-5.323,10.951A3.251,3.251,0,0,0,14,27l.9,7.183L7.682,40.495a2,2,0,1,0,2.634,3.01l8-7a2,2,0,0,0,.67-1.726l.006-4.788L19,30l4.755,4.31,3.418,8.5a2,2,0,0,0,3.657-1.626l-4-9a2.05,2.05,0,0,0-.2-.35L22,26l-.016-.02,3.68-7.427,4.684,3.907A1.5,1.5,0,0,0,31.5,23h6a1.5,1.5,0,0,0,0-3Z" fill="#ffba57"/>
    <path id="Path_491" data-name="Path 491" d="M21.974,26l5.678-11.461A1.5,1.5,0,0,0,26.5,14H20L14.507,25.306a3.482,3.482,0,0,0-.24.694Z" fill="#9575cd"/>
    <path id="Path_492" data-name="Path 492" d="M14.138,26A2.437,2.437,0,0,0,14,27v8h5V26Z" fill="#4db6ac"/>
    <path id="Path_493" data-name="Path 493" d="M24.5,5A3.5,3.5,0,1,1,21,8.5,3.5,3.5,0,0,1,24.5,5" fill="#ffba57"/>
    <path id="Path_494" data-name="Path 494" d="M37.5,23A3.5,3.5,0,1,1,34,26.5,3.5,3.5,0,0,1,37.5,23" fill="#f57f17"/>
    <path id="Path_495" data-name="Path 495" d="M19.5,28a1.5,1.5,0,0,1-1.061-.439l-5-5a1.5,1.5,0,0,1-.092-2.021l5-6a1.5,1.5,0,1,1,2.3,1.921l-4.123,4.947,4.031,4.032A1.5,1.5,0,0,1,19.5,28Z" fill="#ffba57"/>
    <path id="Path_496" data-name="Path 496" d="M26.628,31.837,22,26H20.9a1.494,1.494,0,0,1-2.464,1.56l-3.392-3.392a12.081,12.081,0,0,0-.926,1.9L19,30l4,5,3.827-2.813A1.977,1.977,0,0,0,26.628,31.837Z" fill="#26a69a"/>
    <path id="Path_497" data-name="Path 497" d="M19.235,21.284l1.417-4.825-4.123,4.947,4.031,4.032A1.467,1.467,0,0,1,20.9,26h1.024l.649-1.366s-.38-.388-.6-.61Z" fill="#7e57c2"/>
  </g>
</svg>
