<svg xmlns="http://www.w3.org/2000/svg" width="44" height="36.018" viewBox="0 0 44 36.018">
  <g id="hockey" transform="translate(-2 -6)" style="isolation: isolate">
    <path id="Path_537" data-name="Path 537" d="M21,13.195c-6.956,2.417-11.038,8.717-11.521,9.541A3.471,3.471,0,0,0,9.02,24.8c-.006.066-.02.13-.02.2v9L2.8,38.4a2,2,0,1,0,2.4,3.2l7-5A2,2,0,0,0,13,35l.592-5.92,5.266,2.951-.843,7.676A2,2,0,0,0,19.7,41.978,2.112,2.112,0,0,0,20,42a2,2,0,0,0,1.976-1.707L23,31.335a2,2,0,0,0-.9-1.975l-5.633-4.422A16.283,16.283,0,0,1,23.3,19.806C25.671,18.976,26,16,26,16,24.938,13.375,22.825,12.561,21,13.195Z" fill="#ffba57"/>
    <path id="Path_538" data-name="Path 538" d="M9,34h4.1l.9-9H9Z" fill="#606fc4"/>
    <path id="Path_539" data-name="Path 539" d="M26.5,6A3.5,3.5,0,1,1,23,9.5,3.5,3.5,0,0,1,26.5,6" fill="#ffba57"/>
    <circle id="Ellipse_342" data-name="Ellipse 342" cx="2" cy="2" r="2" transform="translate(42 38)" fill="#82cd9e"/>
    <path id="Path_540" data-name="Path 540" d="M40,37a1,1,0,0,0-1,1,2.031,2.031,0,0,1-.609,1.6,1.684,1.684,0,0,1-1.262.41A6.683,6.683,0,0,1,35.038,38l-11.4-13.531-1.529,1.289L33.471,39.237c.574.772,2.056,2.585,3.4,2.755a3.282,3.282,0,0,0,.421.026,3.7,3.7,0,0,0,2.418-.92A3.951,3.951,0,0,0,41,38,1,1,0,0,0,40,37Z" fill="#455a64"/>
    <path id="Path_541" data-name="Path 541" d="M22.3,29.528a1.914,1.914,0,0,0-.192-.167L16.47,24.938c.006-.007.01-.013.015-.02l-5.475-4.33a19.881,19.881,0,0,0-1.53,2.146,3.474,3.474,0,0,0,1.751,5.02l7.628,4.275-.009.082Z" fill="#7e8ccf"/>
    <path id="Path_542" data-name="Path 542" d="M21,13.195a23.038,23.038,0,0,0-9.99,7.4l5.475,4.33c-.006.007-.01.013-.015.02h0A16.273,16.273,0,0,1,23.3,19.81C25.671,18.976,26,16,26,16,24.938,13.375,22.825,12.561,21,13.195Z" fill="#ff754c"/>
    <path id="Path_543" data-name="Path 543" d="M28.5,33a1.5,1.5,0,0,1-1.423-1.025l-4.019-15.1a1.5,1.5,0,0,1,1.091-1.819A1.457,1.457,0,0,1,26,16l3.919,15.025a1.5,1.5,0,0,1-.948,1.9A1.453,1.453,0,0,1,28.5,33Z" fill="#ffba57"/>
  </g>
</svg>
