<svg xmlns="http://www.w3.org/2000/svg" width="42" height="36.001" viewBox="0 0 42 36.001">
  <g id="table_tennis" transform="translate(-3 -5.999)" style="isolation: isolate">
    <rect id="Rectangle_1268" data-name="Rectangle 1268" width="4.243" height="2" transform="translate(12.708 13.292) rotate(45)" fill="#455a64"/>
    <path id="Path_548" data-name="Path 548" d="M12.871,10.966a3.057,3.057,0,0,1,.476,4.239,2.978,2.978,0,0,1-4.216-.172,3.057,3.057,0,0,1-.476-4.239A2.977,2.977,0,0,1,12.871,10.966Z" fill="#ff754c"/>
    <g id="Group_1326" data-name="Group 1326">
      <path id="Path_549" data-name="Path 549" d="M44.2,38.4,38,34V26a1.973,1.973,0,0,0-.031-.309,3.511,3.511,0,0,0,.013-.436c-.065-.909-1.224-5.489-5.817-10.462L35.5,11.339,40.63,15.72a1.5,1.5,0,0,0,1.744-2.442l-6-5a1.5,1.5,0,0,0-1.737-.005l-2.572,2h0l-5.883,4.583-6.013,4.685-4.606-4.106a1.5,1.5,0,1,0-2.121,2.121l5.5,5a1.5,1.5,0,0,0,1.926.165l5.638-3.734c2.5,2.534,3.965,4.389,4.382,6.08l-6.569,4.049a2,2,0,0,0-1.174,1.137l-4,9a2,2,0,1,0,3.713,1.487l3.667-8.169,6.9-2.782L34,35a2,2,0,0,0,.8,1.6l7,5a2,2,0,1,0,2.4-3.2Z" fill="#ffba57"/>
      <path id="Path_550" data-name="Path 550" d="M24.5,6A3.5,3.5,0,1,0,28,9.5,3.5,3.5,0,0,0,24.5,6" fill="#ffba57"/>
    </g>
    <circle id="Ellipse_343" data-name="Ellipse 343" cx="1.5" cy="1.5" r="1.5" transform="translate(3 20)" fill="#b0bec5"/>
    <path id="Path_551" data-name="Path 551" d="M31,25l6.22-2.406a25.579,25.579,0,0,0-5.054-7.8l1.964-2.036-2.065-2.479L21.74,18.32l1.917,2.556L26.5,18.99c2.5,2.534,3.965,4.389,4.382,6.08Z" fill="#5ec08f"/>
    <path id="Path_552" data-name="Path 552" d="M38,32V26H33l.666,6Z" fill="#2d4c5c"/>
    <path id="Path_553" data-name="Path 553" d="M37.983,25.254a10.814,10.814,0,0,0-.759-2.662L31,25l-4.141,2.547,2.22,4,6.605-2.664a1.987,1.987,0,0,0,.73-.473A3.479,3.479,0,0,0,37.983,25.254Z" fill="#546e7a"/>
  </g>
</svg>
