<svg xmlns="http://www.w3.org/2000/svg" width="35.02" height="40" viewBox="0 0 35.02 40">
  <g id="football" transform="translate(-5.98 -4)" style="isolation: isolate">
    <g id="Group_1323" data-name="Group 1323">
      <path id="Path_524" data-name="Path 524" d="M40.671,14.563a1.5,1.5,0,0,0-2.108-.234L34,18.679l-5.129-3.357L22.6,12.21a1.98,1.98,0,0,0-.633-.183L21.984,12,7.374,12a1.5,1.5,0,0,0,.1,3,.975.975,0,0,0,.108,0l11.192.986L15.984,23l-3.341,7.828a1.5,1.5,0,0,0,2.684,1.344l5.063-7.106,0,0L14.61,40.9a1.5,1.5,0,0,0,2.748,1.2l7.107-15.125,3.829-7.4,5.058,2.214a1.505,1.505,0,0,0,1.71-.115l5.376-5A1.5,1.5,0,0,0,40.671,14.563Z" fill="#ffba57"/>
      <path id="Path_525" data-name="Path 525" d="M26.483,4a3.5,3.5,0,1,1-3.5,3.5,3.5,3.5,0,0,1,3.5-3.5" fill="#ffba57"/>
    </g>
    <path id="Path_526" data-name="Path 526" d="M28.483,37a3.5,3.5,0,1,1-3.5,3.5,3.5,3.5,0,0,1,3.5-3.5" fill="#455a64"/>
    <path id="Path_527" data-name="Path 527" d="M33.368,18.263l-4.5-2.943L22.6,12.208a1.98,1.98,0,0,0-.633-.183c.006-.009.015-.025.015-.025L16,12v3.736l2.778.245L15.984,23l8.482,3.977,3.829-7.4,3.626,1.587Z" fill="#5ec08f"/>
    <g id="Group_1324" data-name="Group 1324">
      <path id="Path_528" data-name="Path 528" d="M15.984,23l-2.635,6.174,3.033,1.517,4.007-5.625Z" fill="#ff754c"/>
      <path id="Path_529" data-name="Path 529" d="M24.465,26.977l-4.071-1.909-2.333,6.387L21.668,33Z" fill="#ff754c"/>
    </g>
  </g>
</svg>
