<svg xmlns="http://www.w3.org/2000/svg" width="33.011" height="40.001" viewBox="0 0 33.011 40.001">
  <g id="golf" transform="translate(-6.994 -4)" style="isolation: isolate">
    <path id="Path_530" data-name="Path 530" d="M7,22l4-4C11,6,17,4,17,4S7,5,7,22Z" fill="#cfd8dc"/>
    <path id="Path_531" data-name="Path 531" d="M30.866,7.5A1,1,0,0,0,29.5,7.133L8.248,19.1A2.306,2.306,0,0,0,7.121,20.65,4.814,4.814,0,0,0,8.9,25.6a2.4,2.4,0,0,0,1.493.4c.009,0,.015-.008.024-.009.028,0,.056.009.085.009a1.492,1.492,0,0,0,1.166-2.433c-.007-.008-.007-.021-.015-.028l-.038-.036a1.425,1.425,0,0,0-.184-.172c-1-.931-2.418-1.846-2.373-2.147a.49.49,0,0,1,.138-.315l21.3-12A1,1,0,0,0,30.866,7.5Z" fill="#455a64"/>
    <path id="Path_532" data-name="Path 532" d="M39.964,41.251,34,26,30.891,15.652,35,13.515a1.5,1.5,0,0,0,.76-2.238l-4-5.6a1.5,1.5,0,0,0-2.512,1.64l2.954,4-5.3,1.73a.238.238,0,0,0-.022.012,3.468,3.468,0,0,0-2.652,4.664l2.5,9A3.485,3.485,0,0,0,28,28.37v5.148L24.21,41.106a2,2,0,0,0,3.579,1.788l4-7.894a1.986,1.986,0,0,0,.195-.647l.179-1.471,3.874,9.867a2,2,0,0,0,2.6,1.106A2.341,2.341,0,0,0,39.964,41.251Z" fill="#ffba57"/>
    <path id="Path_533" data-name="Path 533" d="M34,26H29.383l2.826,7h4.528Z" fill="#b2aead"/>
    <path id="Path_534" data-name="Path 534" d="M24.5,5A3.5,3.5,0,1,1,21,8.5,3.5,3.5,0,0,1,24.5,5" fill="#ffba57"/>
    <path id="Path_535" data-name="Path 535" d="M30.891,15.652l1.535-.8-1.553-3.1s-4.406,1.4-4.6,1.471a3.5,3.5,0,0,0-2.049,4.5L26.518,26H34Z" fill="#9575cd"/>
    <path id="Path_536" data-name="Path 536" d="M26.72,26.727A3.485,3.485,0,0,0,28,28.371V33h4.147L33,26H26.518Z" fill="#d2ccc9"/>
  </g>
</svg>
