<svg xmlns="http://www.w3.org/2000/svg" width="42" height="42" viewBox="0 0 42 42">
  <g id="weightlifting" transform="translate(-3 -3)" style="isolation: isolate">
    <rect id="Rectangle_1269" data-name="Rectangle 1269" width="42" height="2" transform="translate(3 9)" fill="#607d8b"/>
    <g id="Group_1329" data-name="Group 1329">
      <path id="Path_570" data-name="Path 570" d="M34.743,32.9,28.38,29.7l1.188-7.141,3.854-11.083a1.5,1.5,0,0,0-2.846-.95L27,21s0,1-3,1-3-1-3-1L17.423,10.525a1.5,1.5,0,0,0-2.846.95L18.49,22.726l1.37,8.429L9.646,41.525a2,2,0,0,0,2.7,2.95L24,34h.014L32,36l-.987,6.752a2,2,0,0,0,1.736,2.232A1.772,1.772,0,0,0,33,45a2,2,0,0,0,1.982-1.752l1-8.248A2,2,0,0,0,34.743,32.9Z" fill="#ffba57"/>
      <circle id="Ellipse_345" data-name="Ellipse 345" cx="3" cy="3" r="3" transform="translate(21 14)" fill="#ffba57"/>
    </g>
    <g id="Group_1330" data-name="Group 1330">
      <path id="Path_571" data-name="Path 571" d="M42,16a1,1,0,0,1-1,1H40a1,1,0,0,1-1-1V4a1,1,0,0,1,1-1h1a1,1,0,0,1,1,1Z" fill="#e64a19"/>
      <path id="Path_572" data-name="Path 572" d="M6,16a1,1,0,0,0,1,1H8a1,1,0,0,0,1-1V4A1,1,0,0,0,8,3H7A1,1,0,0,0,6,4Z" fill="#e64a19"/>
    </g>
    <g id="Group_1331" data-name="Group 1331">
      <path id="Path_573" data-name="Path 573" d="M39,16a1,1,0,0,1-1,1H37a1,1,0,0,1-1-1V4a1,1,0,0,1,1-1h1a1,1,0,0,1,1,1Z" fill="#ff754c"/>
      <path id="Path_574" data-name="Path 574" d="M9,16a1,1,0,0,0,1,1h1a1,1,0,0,0,1-1V4a1,1,0,0,0-1-1H10A1,1,0,0,0,9,4Z" fill="#ff754c"/>
    </g>
    <g id="Group_1332" data-name="Group 1332">
      <rect id="Rectangle_1270" data-name="Rectangle 1270" width="5" height="2" transform="translate(29 9)" fill="#90a4ae"/>
      <rect id="Rectangle_1271" data-name="Rectangle 1271" width="5" height="2" transform="translate(14 9)" fill="#90a4ae"/>
    </g>
    <path id="Path_575" data-name="Path 575" d="M32,36V31.5l-3.619-1.809.682-4.1A4.689,4.689,0,0,1,27,21.5a5.758,5.758,0,0,1,.051-.649L27,21s0,.491-1.04.785C25.778,23.618,24.97,25,24,25s-1.778-1.382-1.96-3.215C21,21.491,21,21,21,21l-.051-.149A5.758,5.758,0,0,1,21,21.5a4.694,4.694,0,0,1-2.046,4.082l.906,5.572-3.823,3.882,3.226,3.226L24,34h.014Z" fill="#00acc1"/>
    <path id="Path_576" data-name="Path 576" d="M24,32l-5.914,5.083,1.179,1.179L24,34l8,2V34.438Z" fill="#0097a7"/>
  </g>
</svg>
