<svg xmlns="http://www.w3.org/2000/svg" width="45.999" height="36" viewBox="0 0 45.999 36">
  <g id="wrestling" transform="translate(-1.001 -6)" style="isolation: isolate">
    <g id="Group_1333" data-name="Group 1333">
      <path id="Path_577" data-name="Path 577" d="M46.281,38.463l-5.143-4.285L42.9,27.523c.02-.085.037-.169.05-.255l.021-.1a.48.48,0,0,0,0-.1,3.479,3.479,0,0,0-.993-2.813l-6.042-6.219a3.49,3.49,0,0,0-4.625-.265h0a1.316,1.316,0,0,0-.221.18h0c-.033.031-.071.052-.1.084-.016.016-.029.038-.045.055L28.4,20.478a1.5,1.5,0,0,0-.293.464l0,.012h0l-1.757,4.39-4.4,1.762a1.5,1.5,0,0,0,1.114,2.787l5-2a1.493,1.493,0,0,0,.836-.836L31,23.95l3.517,3.517-4.8,4a2.01,2.01,0,0,0-.643.987l-2,7a2,2,0,0,0,1.373,2.473A2.062,2.062,0,0,0,29,42a2,2,0,0,0,1.922-1.451l1.831-6.407L37.5,30.813l-.479,3.9a2,2,0,0,0,.7,1.819l6,5a2,2,0,0,0,2.56-3.073Z" fill="#ffba57"/>
      <path id="Path_578" data-name="Path 578" d="M25.98,22.252a1.5,1.5,0,0,0-1.727-1.232l-4.846.808L17.043,16.4a1.5,1.5,0,0,0-.637-.706s-1.735-1.062-2.249-1.319a3.5,3.5,0,0,0-4.7,1.565L5.37,24.216A4.862,4.862,0,0,0,5,26.063l1,7.213L1.465,38.719a2,2,0,1,0,3.072,2.56l5-6A2,2,0,0,0,10,34V29.634l5.242,4.493,1.835,6.422A2,2,0,0,0,19,42a2.024,2.024,0,0,0,.551-.077,2,2,0,0,0,1.373-2.473l-2-7a2,2,0,0,0-.621-.97l-5.344-5.57,2.292-4.584.027.04h0L17.126,24.1a1.5,1.5,0,0,0,1.622.879l6-1A1.5,1.5,0,0,0,25.98,22.252Z" fill="#ffba57"/>
      <path id="Path_579" data-name="Path 579" d="M16.5,6A3.5,3.5,0,1,1,13,9.5,3.5,3.5,0,0,1,16.5,6" fill="#ffba57"/>
      <path id="Path_580" data-name="Path 580" d="M27.5,11A3.5,3.5,0,1,1,24,14.5,3.5,3.5,0,0,1,27.5,11" fill="#ffba57"/>
    </g>
    <path id="Path_581" data-name="Path 581" d="M18.3,31.48l-5.344-5.57,2.292-4.584.027.04L17.4,17.212l-.354-.812a1.5,1.5,0,0,0-.637-.706s-1.735-1.062-2.249-1.319a3.5,3.5,0,0,0-4.7,1.565L5.37,24.216A4.862,4.862,0,0,0,5,26.063L5.963,33H10V29.634l5.242,4.493Z" fill="#9575cd"/>
    <path id="Path_582" data-name="Path 582" d="M41.139,34.178,42.9,27.523c.02-.085.037-.169.05-.255l.021-.1a.48.48,0,0,0,0-.1,3.479,3.479,0,0,0-.993-2.813l-6.042-6.219a3.49,3.49,0,0,0-4.625-.265,1.316,1.316,0,0,0-.221.18c-.033.031-.071.052-.1.084-.016.016-.029.038-.045.055L28.4,20.478a1.5,1.5,0,0,0-.293.464l0,.012,2.231,2.265a2.361,2.361,0,0,0,.192.255l3.991,3.991-4.8,4,3.034,2.679L37.5,30.812l-.479,3.9Z" fill="#ff754c"/>
    <g id="Group_1334" data-name="Group 1334">
      <path id="Path_583" data-name="Path 583" d="M31,24l1-2,4,4-1.5,1.437Z" fill="#e64a19"/>
      <path id="Path_584" data-name="Path 584" d="M40,29l-2.5,1.812h0l-.48,3.9,2.017-.264Z" fill="#e64a19"/>
    </g>
    <g id="Group_1335" data-name="Group 1335">
      <path id="Path_585" data-name="Path 585" d="M8,28l2,1.634V33H8Z" fill="#7e57c2"/>
      <path id="Path_586" data-name="Path 586" d="M15.251,21.312,14,19.458,11.542,24.5l1.417,1.41Z" fill="#7e57c2"/>
    </g>
  </g>
</svg>
