<svg xmlns="http://www.w3.org/2000/svg" width="32" height="44.001" viewBox="0 0 32 44.001">
  <g id="volleyball" transform="translate(-8 -2)" style="isolation: isolate">
    <path id="Path_564" data-name="Path 564" d="M39.8,8.755A1.5,1.5,0,0,0,37.755,8.2l-6.871,3.927-5.465,1.821L13,18.37V11.5a1.5,1.5,0,0,0-3,0v9A1.5,1.5,0,0,0,12,21.912l7.64-1.827A9.66,9.66,0,0,1,19,27l-2.579,6.628L8.941,38.3A2,2,0,1,0,11.06,41.7l8-5a2,2,0,0,0,.768-.884L23,29s-.335,3.086-.943,7.458l-2.9,6.754a2,2,0,1,0,3.676,1.576l3-7a2.005,2.005,0,0,0,.143-.51S28,27.958,28,23a36.4,36.4,0,0,0-.76-5.148l4.734-2.93c.094-.031,7.27-4.12,7.27-4.12A1.5,1.5,0,0,0,39.8,8.755Z" fill="#ffba57"/>
    <path id="Path_565" data-name="Path 565" d="M19,27l-1.28,3.288,3.945,1.578L23,29s-.124,1.137-.356,3H26.99c.27-1.578.535-3.329.728-5Z" fill="#00acc1"/>
    <path id="Path_566" data-name="Path 566" d="M19.5,6A3.5,3.5,0,1,1,16,9.5,3.5,3.5,0,0,1,19.5,6" fill="#ffba57"/>
    <path id="Path_567" data-name="Path 567" d="M32.5,2A3.5,3.5,0,1,1,29,5.5,3.5,3.5,0,0,1,32.5,2" fill="#1565c0"/>
    <path id="Path_568" data-name="Path 568" d="M22.644,32h1.939L25,28l-2,1S22.876,30.137,22.644,32Z" fill="#0097a7"/>
    <path id="Path_569" data-name="Path 569" d="M19,27h8.719c.178-1.536.258-2.989.27-4a16.781,16.781,0,0,0-1.915-8,4.434,4.434,0,0,0-.654-1.057L25,14.087,17.566,16.74c.564.749,1.245,1.675,1.245,1.675C18.833,18.443,21.375,21.5,19,27Z" fill="#ff754c"/>
  </g>
</svg>
