<svg xmlns="http://www.w3.org/2000/svg" width="37.001" height="40" viewBox="0 0 37.001 40">
  <g id="athletics" transform="translate(-5 -4)" style="isolation: isolate">
    <path id="Path_479" data-name="Path 479" d="M42,22.5A1.5,1.5,0,0,1,40.5,24h-6.49a1.5,1.5,0,0,1-1.379-.91L30.1,18.145,26,25.405l5.216,6.01a2,2,0,0,1,.527,2.557l-5,9a2,2,0,1,1-3.5-1.944l4.163-7.492-5.669-5.078L17.708,33.04A2,2,0,0,1,16,34H7a2,2,0,0,1,0-4h7.876l5.168-8.166L20,21.807l4.294-7.613L20.286,13l-4.954,3.748a1.5,1.5,0,1,1-1.664-2.5l5.332-4A1.5,1.5,0,0,1,19.832,10l6.385.784h.012A1.487,1.487,0,0,1,27,11l4.771,2.715a1.317,1.317,0,0,1,.3.251,1.491,1.491,0,0,1,.308.445L35,21h5.5A1.5,1.5,0,0,1,42,22.5ZM33,4a4,4,0,1,0,4,4,4,4,0,0,0-4-4" fill="#ffba57"/>
    <path id="Path_480" data-name="Path 480" d="M20.044,21.834,14.876,30l2.832,3.039L24.973,24.8Z" fill="#2d4c5c"/>
    <path id="Path_481" data-name="Path 481" d="M31.771,13.715,27,11a1.487,1.487,0,0,0-.771-.215h-.012L20,21.807l6,3.6,6.287-11.148A1.486,1.486,0,0,0,31.771,13.715Z" fill="#00acc1"/>
    <path id="Path_482" data-name="Path 482" d="M26,25.413l-6-3.6,1.012-1.794L19.5,22.7a3.494,3.494,0,0,0,1.093,4.723l6.824,6.113,3.806-2.12L26,25.406Z" fill="#546e7a"/>
  </g>
</svg>
