<svg xmlns="http://www.w3.org/2000/svg" width="40" height="43" viewBox="0 0 40 43">
  <g id="canoe_sprint" transform="translate(-4 -3)" style="isolation: isolate">
    <path id="Path_498" data-name="Path 498" d="M26,25H23a2,2,0,0,0-2,2v9a2,2,0,0,0,4,0V29h1Z" fill="#ffba57"/>
    <path id="Path_499" data-name="Path 499" d="M15.343,22.828a1.5,1.5,0,0,0,.67-.158l5.658-2.328a1.5,1.5,0,0,0,.39-.281L28,16l-2-3-5.889,4.768-5.44,2.219a1.5,1.5,0,0,0,.672,2.841Z" fill="#ffba57"/>
    <path id="Path_500" data-name="Path 500" d="M35,38H31L30,27h5Z" fill="#2d4c5c"/>
    <path id="Path_501" data-name="Path 501" d="M25.5,3A3.5,3.5,0,1,0,29,6.5,3.5,3.5,0,0,0,25.5,3" fill="#ffba57"/>
    <path id="Path_502" data-name="Path 502" d="M21.671,20.342a1.5,1.5,0,0,0,.39-.281L28,16l-2-3-5.889,4.768Z" fill="#ec407a"/>
    <path id="Path_503" data-name="Path 503" d="M4,33s4,3,20,3H44v7H13c-4,0-9-8-9-9Z" fill="#5ec08f"/>
    <line id="Line_5" data-name="Line 5" x2="4" y2="33" transform="translate(13 8)" fill="none" stroke="#455a64" stroke-width="2"/>
    <path id="Path_504" data-name="Path 504" d="M14,44h7c-.625-5.375-3.426-6.844-3.863-10h-2C15.293,37.188,13.688,38.25,14,44Z" fill="#607d8b"/>
    <path id="Path_505" data-name="Path 505" d="M28.074,12.545l-8.22-1.639-5.627-3.72a1.5,1.5,0,1,0-1.453,2.625l5.833,3.833a1.5,1.5,0,0,0,.434.16L27,17Z" fill="#ffba57"/>
    <path id="Path_506" data-name="Path 506" d="M34.875,25.5,31.157,14.227A3.251,3.251,0,0,0,28.093,12l-2.748,0-5.491-1.1-1.248,2.738a1.5,1.5,0,0,0,.434.16l5.4,2.167c.031.107.05.2.084.31l4.186,11.273A3.219,3.219,0,0,0,29.7,29H33C34.844,28.781,35.307,26.8,34.875,25.5Z" fill="#ff66a1"/>
    <path id="Path_507" data-name="Path 507" d="M44,40a4.333,4.333,0,0,1-4-2,4.333,4.333,0,0,1-4,2,4.333,4.333,0,0,1-4-2,4.333,4.333,0,0,1-4,2,4.333,4.333,0,0,1-4-2,4.333,4.333,0,0,1-4,2,4.333,4.333,0,0,1-4-2,4.333,4.333,0,0,1-4,2,4.333,4.333,0,0,1-4-2,4.333,4.333,0,0,1-4,2v6H44Z" fill="#7e8ccf"/>
    <path id="Path_508" data-name="Path 508" d="M44,42a4.333,4.333,0,0,1-4-2,4.333,4.333,0,0,1-4,2,4.333,4.333,0,0,1-4-2,4.333,4.333,0,0,1-4,2,4.333,4.333,0,0,1-4-2,4.333,4.333,0,0,1-4,2,4.333,4.333,0,0,1-4-2,4.333,4.333,0,0,1-4,2,4.333,4.333,0,0,1-4-2,4.333,4.333,0,0,1-4,2v4H44Z" fill="#c5cae9"/>
    <path id="Path_509" data-name="Path 509" d="M34.875,25.5,34.4,24.06,25,25v4h8C34.844,28.781,35.307,26.8,34.875,25.5Z" fill="#546e7a"/>
  </g>
</svg>
