<svg xmlns="http://www.w3.org/2000/svg" width="32.083" height="44.01" viewBox="0 0 32.083 44.01">
  <g id="tennis" transform="translate(-8 -1.99)" style="isolation: isolate">
    <g id="Group_1327" data-name="Group 1327">
      <path id="Path_558" data-name="Path 558" d="M38.851,6.335c.469,2.178-.2,4.241-1.5,4.609s-2.731-1.1-3.2-3.278.2-4.241,1.5-4.609S38.382,4.157,38.851,6.335Z" fill="none" stroke="#607d8b" stroke-width="2"/>
      <line id="Line_6" data-name="Line 6" x2="1.651" y2="8.056" transform="translate(37.349 10.944)" fill="none" stroke="#607d8b" stroke-width="2"/>
    </g>
    <g id="Group_1328" data-name="Group 1328">
      <path id="Path_559" data-name="Path 559" d="M40,19.188a1.5,1.5,0,0,0-1.8-1.126l-7.013.856-6.527-5.932c-1.414-1.414-2.828-1.414-4.95.707l.015.014a3.443,3.443,0,0,0-.647.768c-.018.029-.078.12-.155.238l-.056.087c-.046.071-.095.15-.153.243-.014.023-.028.045-.042.069A16.961,16.961,0,0,0,16.061,25h0a12.042,12.042,0,0,0,1.229,4.4c.028.056,2.26,6.574,2.268,6.6l.154.462-6.126,6.126a2,2,0,1,0,2.828,2.827l7-7a2,2,0,0,0,.483-2.047L22.214,30.72l4.975,4.353,1.858,8.36A2,2,0,0,0,31,45a2.036,2.036,0,0,0,.436-.048,2,2,0,0,0,1.519-2.386l-2-9a1.99,1.99,0,0,0-.635-1.071l-7.751-6.782A2.183,2.183,0,0,1,22.952,25h0c-.031-1.969,1.367-4.723,2.351-6.456l5.024,3.3A1.494,1.494,0,0,0,31,22a1.532,1.532,0,0,0,.336-.038l7.538-.977A1.5,1.5,0,0,0,40,19.188Z" fill="#feb959"/>
      <path id="Path_560" data-name="Path 560" d="M23,8.5A3.5,3.5,0,1,1,26.5,12,3.5,3.5,0,0,1,23,8.5" fill="#ffba57"/>
    </g>
    <circle id="Ellipse_344" data-name="Ellipse 344" cx="2" cy="2" r="2" transform="translate(8 10)" fill="#82cd9e"/>
    <path id="Path_561" data-name="Path 561" d="M30.317,32.495l-6.891-6.03a3.022,3.022,0,0,1-.466-1.585c0,.039-.009.081-.008.119C22.021,26.021,22,30,22,30l.215.72,4.975,4.353,3.763-1.507A2,2,0,0,0,30.317,32.495Z" fill="#7e57c2"/>
    <path id="Path_562" data-name="Path 562" d="M24.662,12.986c-1.414-1.414-2.828-1.414-4.95.707l.015.014a3.443,3.443,0,0,0-.647.768c-.171.283-3.5,4.955-3.019,10.526h6.894c-.031-1.969,1.367-4.723,2.351-6.456L27,19.655l2.12-2.611Z" fill="#5ec08f"/>
    <path id="Path_563" data-name="Path 563" d="M22.952,25H16.061a12.042,12.042,0,0,0,1.229,4.4c.028.056,2.269,6.6,2.269,6.6h4.229L22,30S22.021,26.022,22.952,25Z" fill="#9575cd"/>
  </g>
</svg>
