<svg xmlns="http://www.w3.org/2000/svg" width="33.001" height="40" viewBox="0 0 33.001 40">
  <g id="taekwondo" transform="translate(-7.999 -4)" style="isolation: isolate">
    <path id="Path_554" data-name="Path 554" d="M14,4a4,4,0,1,1-4,4,4,4,0,0,1,4-4" fill="#ffba57"/>
    <path id="Path_555" data-name="Path 555" d="M41,14a2,2,0,0,0-3.378-1.444L25.279,20.207l-2.951-4.426a4.02,4.02,0,0,0-.33-.4l9.2-5.555a1.5,1.5,0,0,0-1.4-2.65l-17,9a1.506,1.506,0,0,0-.6.581l-4,7a1.5,1.5,0,0,0,.365,1.915l5,4a1.5,1.5,0,1,0,1.875-2.342l-4-3.2,3.951-4.443a3.939,3.939,0,0,0,.282.532L20,26.54V42a2,2,0,0,0,4,0l2-16L39.926,15.763A1.991,1.991,0,0,0,41,14Z" fill="#d2ccc9"/>
    <path id="Path_556" data-name="Path 556" d="M26,26,24,42V27Z" fill="#d2ccc9"/>
    <path id="Path_557" data-name="Path 557" d="M15.333,19.729,20,26.533A18.378,18.378,0,0,0,25.408,20.4L22,15.333S18.787,17.358,15.333,19.729Z" fill="#606fc4"/>
  </g>
</svg>
