<svg xmlns="http://www.w3.org/2000/svg" xmlns:xlink="http://www.w3.org/1999/xlink" width="44.115" height="104.615" viewBox="0 0 44.115 104.615">
  <defs>
    <linearGradient id="linear-gradient" y1="0.072" x2="1.541" y2="1.383" gradientUnits="objectBoundingBox">
      <stop offset="0" stop-color="#ff7f00"/>
      <stop offset="1" stop-color="#ef4136"/>
    </linearGradient>
  </defs>
  <path id="Path_361" data-name="Path 361" d="M181.189,635.461c-.319,1.569-.62,3.14-.962,4.705a29.454,29.454,0,0,1-2.8,6.962,35.2,35.2,0,0,0-2.457,5.6,15.615,15.615,0,0,0-.728,4.217,5.755,5.755,0,0,1-.821,2.991,4.4,4.4,0,0,0-.444,3.736,2.415,2.415,0,0,1,.213,1.154.628.628,0,0,1-.477.575.664.664,0,0,1-.654-.242c-1.256-1.556-2.556-3.027-1.857-5.18a49.541,49.541,0,0,0,1.828-9.905,32.246,32.246,0,0,1,2.4-10.014,9.346,9.346,0,0,0,.792-3.448,43.432,43.432,0,0,1,.591-4.779c.17-1.057.322-2.118.441-3.18a9.347,9.347,0,0,1,.427-1.885,5.079,5.079,0,0,1,4.113-3.393c1.135-.247,2.288-.43,3.424-.675a9.748,9.748,0,0,0,2.777-.965,4.223,4.223,0,0,0,1.811-1.864,1.689,1.689,0,0,0-.393-2.218,11.478,11.478,0,0,1-2.536-4.439c-.105-.3-.2-.706.166-.893.611-.316.546-.716.424-1.2a9.039,9.039,0,0,1-.162-2.344,1.708,1.708,0,0,1,.746-1.624.706.706,0,0,0,.307-.443,2.535,2.535,0,0,1,1.906-1.559,9.477,9.477,0,0,1,5.185-.133,4.1,4.1,0,0,1,3.432,3.793,15.649,15.649,0,0,1-.267,2.658c-.031.291-.123.563.283.729a.646.646,0,0,1,.348,1,15.813,15.813,0,0,1-1.435,2.914,9.521,9.521,0,0,1-1.658,2.1c-.252.194-.182.44-.129.7a4.1,4.1,0,0,0,2.507,3.026,20.2,20.2,0,0,0,4.542,1.193c.489.1.985.17,1.468.286a5.04,5.04,0,0,1,3.9,3.31,33.682,33.682,0,0,1,.779,4.539c.494,2.388.565,4.815.979,7.209a8.412,8.412,0,0,0,.649,1.949,30.382,30.382,0,0,1,2.164,8.972,57.332,57.332,0,0,0,1.871,10.44,3.944,3.944,0,0,1-.729,3.949,10.7,10.7,0,0,1-1.127,1.411.658.658,0,0,1-.661.214.526.526,0,0,1-.38-.513,2.992,2.992,0,0,1,.1-.951,4.689,4.689,0,0,0-.545-4.334,3.719,3.719,0,0,1-.577-1.954,20.569,20.569,0,0,0-2.573-9.187c-.569-1.11-1.109-2.231-1.679-3.341a30.643,30.643,0,0,1-2.516-8.467c-.087-.455-.2-.906-.3-1.365a.474.474,0,0,0-.324.344c-.865,2.651-1.682,5.335-1.331,8.1a82.6,82.6,0,0,0,1.3,9.111,42.728,42.728,0,0,1,.728,14.046c-.267,2.917-.878,5.788-1.4,8.672a16.492,16.492,0,0,0-.034,5.222,36.181,36.181,0,0,1,.263,8.856,40.4,40.4,0,0,1-2.25,8.969c-.251.716-.47,1.441-.66,2.17a7.688,7.688,0,0,0,1.457,6.762c1,1.355.545,1.877-1.251,1.774-1-.058-2.011,0-3.016-.014-1.424-.023-1.644-.255-1.723-1.438a22.447,22.447,0,0,1,1.006-7.824,13.042,13.042,0,0,0,.1-5.424,38.931,38.931,0,0,1-.633-6.81,14.175,14.175,0,0,1,.347-2.76,6.535,6.535,0,0,0-.185-3.8A23.072,23.072,0,0,1,194.1,672.8a37.353,37.353,0,0,0-.784-7.12,26.124,26.124,0,0,1-.442-3.609,2.9,2.9,0,0,0-.028-.533c-.077-.359-.194-.736-.725-.749-.61-.015-.749.372-.78.793a46.918,46.918,0,0,1-.718,5.411,39.348,39.348,0,0,0-.548,7.992,17.1,17.1,0,0,1-1.037,5.575,9.157,9.157,0,0,0-.281,5.053,17.222,17.222,0,0,1-.015,6.491c-.211,1.376-.416,2.755-.563,4.137a10.569,10.569,0,0,0,.495,4.662,15.86,15.86,0,0,1,.76,5.708c-.011.535.017,1.07-.01,1.6-.037.716-.308,1.041-1.086,1.067-1.506.049-3.018.052-4.523,0-.845-.032-1.084-.45-.716-1.111.322-.578.736-1.119,1.069-1.693a7.36,7.36,0,0,0,.749-5.732c-.471-1.806-1.1-3.582-1.655-5.372a30.438,30.438,0,0,1-.994-14.088,19.3,19.3,0,0,0-.282-7.334,54.44,54.44,0,0,1-1.363-14.03,44.942,44.942,0,0,1,1.256-8.47,41.246,41.246,0,0,0,.668-4.769c.066-.567.1-1.133.21-1.7A16.431,16.431,0,0,0,181.189,635.461Z" transform="translate(-170.01 -604.722)" fill="url(#linear-gradient)"/>
</svg>
